# xmcd
#
# Track frame offsets:
#	150
#	21156
#	40074
#	60362
#	75485
#	107021
#	126508
#	144003
#
# Disc length: 2193 seconds
#
# Revision: 0
# Processed by: cddbd v1.5.1PL0 Copyright (c) Steve Scherf et al.
# Submitted via: dBpowerAMP V4.0
#
DISCID=5b088f08
DTITLE=La Ocho Cuarenta - Demo
DYEAR=2000
DGENRE=Blues
TTITLE0=Quien de Quien
TTITLE1=Whiskie Escoces
TTITLE2=Gasolina
TTITLE3=Aquellos Hechos
TTITLE4=Power Of Soul
TTITLE5=Couldnt Stand The Weather
TTITLE6=Pride And Joy
TTITLE7=Cold Shot
EXTD=
EXTT0=
EXTT1=
EXTT2=
EXTT3=
EXTT4=
EXTT5=
EXTT6=
EXTT7=
PLAYORDER=
